<svg xmlns="http://www.w3.org/2000/svg" viewBox="0 0 32 32" id="social-media">
  <g>
    <path d="M27 .45H5A4.56 4.56 0 0 0 .45 5v12.42a.5.5 0 0 0 1 0V5A3.56 3.56 0 0 1 5 1.45h22A3.56 3.56 0 0 1 30.55 5v5a.5.5 0 1 0 1 0V5A4.56 4.56 0 0 0 27 .45zM1 22.27a.5.5 0 0 0 .5-.5v-1.25a.5.5 0 0 0-1 0v1.25a.5.5 0 0 0 .5.5z"></path>
    <path d="M30.84 28.36a.5.5 0 0 0-.67.22 3.69 3.69 0 0 1-.28.46A3.56 3.56 0 0 1 27 30.55h-8.62V19.82h4.94l.93-5.82h-5.87V9.71a1.11 1.11 0 0 1 1.11-1.11H26V2.73h-7.62a5.87 5.87 0 0 0-5.87 5.87V14H7.58v5.87h4.93v10.68H5A3.56 3.56 0 0 1 1.45 27v-3.29a.5.5 0 0 0-1 0V27A4.56 4.56 0 0 0 5 31.55h22A4.56 4.56 0 0 0 31.07 29a.5.5 0 0 0-.23-.64Z"></path>
    <path d="M31 14.53a.5.5 0 0 0-.5.5V27a.5.5 0 0 0 1 0V15a.5.5 0 0 0-.5-.47zm0-2.88a.5.5 0 0 0-.5.5v1.55a.5.5 0 0 0 1 0v-1.55a.5.5 0 0 0-.5-.5z"></path>
  </g>
</svg>
